<?xml version="1.0" encoding="UTF-8"?>
<svg width="120px" height="48px" viewBox="0 0 120 48" version="1.1" xmlns="http://www.w3.org/2000/svg" xmlns:xlink="http://www.w3.org/1999/xlink">
    <title>CE26D02D-C255-407C-94FE-F5F7CD5FAFCC</title>
    <defs>
        <linearGradient x1="1.02839506%" y1="50.0911386%" x2="100.130864%" y2="50.0911386%" id="linearGradient-1">
            <stop stop-color="#FF254C" offset="0%"></stop>
            <stop stop-color="#FF2B44" offset="100%"></stop>
        </linearGradient>
        <linearGradient x1="0.463414634%" y1="49.37875%" x2="98.8390244%" y2="49.37875%" id="linearGradient-2">
            <stop stop-color="#FF254C" offset="0%"></stop>
            <stop stop-color="#FF2B44" offset="100%"></stop>
        </linearGradient>
        <linearGradient x1="49.9415667%" y1="99.9333333%" x2="49.9415667%" y2="-0.00882352941%" id="linearGradient-3">
            <stop stop-color="#FF254C" offset="0%"></stop>
            <stop stop-color="#FF2B44" offset="100%"></stop>
        </linearGradient>
        <linearGradient x1="49.5852941%" y1="100.008955%" x2="49.5852941%" y2="0.00671641791%" id="linearGradient-4">
            <stop stop-color="#FF254C" offset="0%"></stop>
            <stop stop-color="#FF2B44" offset="100%"></stop>
        </linearGradient>
        <linearGradient x1="49.9287499%" y1="100.181818%" x2="49.9287499%" y2="0.533766234%" id="linearGradient-5">
            <stop stop-color="#FF254C" offset="0%"></stop>
            <stop stop-color="#FF2B44" offset="100%"></stop>
        </linearGradient>
        <linearGradient x1="50.0258065%" y1="100.013366%" x2="50.0258065%" y2="-0.0943069307%" id="linearGradient-6">
            <stop stop-color="#FF254C" offset="0%"></stop>
            <stop stop-color="#FF2B44" offset="100%"></stop>
        </linearGradient>
        <linearGradient x1="49.5326203%" y1="99.7568681%" x2="49.5326203%" y2="-0.116208791%" id="linearGradient-7">
            <stop stop-color="#FF254C" offset="0%"></stop>
            <stop stop-color="#FF2B44" offset="100%"></stop>
        </linearGradient>
        <linearGradient x1="49.8687345%" y1="100.013366%" x2="49.8687345%" y2="-0.0943069307%" id="linearGradient-8">
            <stop stop-color="#FF254C" offset="0%"></stop>
            <stop stop-color="#FF2B44" offset="100%"></stop>
        </linearGradient>
        <linearGradient x1="49.6114973%" y1="100.031593%" x2="49.6114973%" y2="0.158516484%" id="linearGradient-9">
            <stop stop-color="#FF254C" offset="0%"></stop>
            <stop stop-color="#FF2B44" offset="100%"></stop>
        </linearGradient>
        <linearGradient x1="49.9867647%" y1="99.8294118%" x2="49.9867647%" y2="-0.620588235%" id="linearGradient-10">
            <stop stop-color="#FF254C" offset="0%"></stop>
            <stop stop-color="#FF2B44" offset="100%"></stop>
        </linearGradient>
        <linearGradient x1="49.7191176%" y1="99.8294118%" x2="49.7191176%" y2="-0.620588235%" id="linearGradient-11">
            <stop stop-color="#FF254C" offset="0%"></stop>
            <stop stop-color="#FF2B44" offset="100%"></stop>
        </linearGradient>
        <linearGradient x1="49.9143713%" y1="99.8611111%" x2="49.9143713%" y2="-0.151190476%" id="linearGradient-12">
            <stop stop-color="#FF254C" offset="0%"></stop>
            <stop stop-color="#FF2B44" offset="100%"></stop>
        </linearGradient>
    </defs>
    <g id="Page-1" stroke="none" stroke-width="1" fill="none" fill-rule="evenodd">
        <g id="Supplier_1280" transform="translate(-64.000000, -18.000000)" fill-rule="nonzero">
            <g id="Logo-/-color" transform="translate(64.000000, 18.000000)">
                <g id="Tinvio_LOGO_vector_transparent" transform="translate(13.000000, 10.000000)">
                    <path d="M39.6494186,9.87641509 L38.2011628,9.87641509 L38.2011628,8.1254717 L39.7040698,8.1254717 L39.7040698,4.95188679 L41.8081395,4.95188679 L41.8081395,8.1254717 L44.4860465,8.1254717 L44.4860465,9.87641509 L41.8081395,9.87641509 L41.8081395,14.8556604 C41.8081395,17.0716981 43.3656977,17.3726415 44.1854651,17.3726415 C44.3494186,17.3726415 44.4587209,17.3726415 44.7046512,17.3179245 L44.7046512,19.2056604 C44.5406977,19.2330189 44.2947674,19.2603774 43.9668605,19.2603774 C42.5459302,19.2603774 39.7040698,18.795283 39.7040698,15.0745283 L39.7040698,9.87641509 L39.6494186,9.87641509 Z" id="Path" fill="#21272E"></path>
                    <path d="M47.9017442,3.63867925 L47.9563953,3.63867925 C48.5575581,3.63867925 49.022093,4.13113208 49.022093,4.70566038 L49.022093,4.70566038 C49.022093,5.30754717 48.5302326,5.8 47.9290698,5.77264151 L47.8744186,5.77264151 C47.3005814,5.77264151 46.8087209,5.28018868 46.8087209,4.70566038 L46.8087209,4.70566038 C46.8360465,4.13113208 47.3005814,3.63867925 47.9017442,3.63867925 Z" id="Path" fill="url(#linearGradient-1)"></path>
                    <rect id="Rectangle" fill="#21272E" x="46.8906977" y="8.01603774" width="2.13139535" height="11.1622642"></rect>
                    <path d="M52.3011628,8.01603774 L54.377907,8.01603774 L54.377907,9.54811321 C54.377907,10.0132075 54.3232558,10.3962264 54.3232558,10.3962264 L54.377907,10.3962264 C54.7877907,9.43867925 56.1540698,7.76981132 58.6133721,7.76981132 C61.2366279,7.76981132 62.4389535,9.19245283 62.4389535,12.0377358 L62.4389535,19.1783019 L60.3075581,19.1783019 L60.3075581,12.5028302 C60.3075581,10.9433962 60.0069767,9.71226415 58.2034884,9.71226415 C56.0174419,9.71226415 54.4872093,11.5179245 54.4872093,13.8160377 L54.4872093,19.1783019 L52.355814,19.1783019 L52.355814,8.01603774 L52.3011628,8.01603774 Z" id="Path" fill="#21272E"></path>
                    <path d="M64.2151163,8.01603774 L66.4831395,8.01603774 L69.1883721,15.5669811 C69.3796512,16.1962264 69.5982558,17.0990566 69.5982558,17.0990566 L69.652907,17.0990566 C69.652907,17.0990566 69.8168605,16.1962264 70.0354651,15.5669811 L72.7406977,8.01603774 L74.9813953,8.01603774 L70.8552326,19.1783019 L68.3959302,19.1783019 L64.2151163,8.01603774 Z" id="Path" fill="#21272E"></path>
                    <path d="M78.1238372,3.61132075 L78.1784884,3.61132075 C78.7796512,3.61132075 79.2715116,4.10377358 79.2715116,4.70566038 L79.2715116,4.70566038 C79.2715116,5.30754717 78.7796512,5.8 78.1784884,5.8 L78.1238372,5.8 C77.5226744,5.8 77.030814,5.30754717 77.030814,4.70566038 L77.030814,4.70566038 C77.030814,4.10377358 77.5226744,3.61132075 78.1238372,3.61132075 Z" id="Path" fill="url(#linearGradient-2)"></path>
                    <rect id="Rectangle" fill="#21272E" x="77.0854651" y="8.01603774" width="2.13139535" height="11.1622642"></rect>
                    <path d="M87.7697674,7.76981132 C91.1034884,7.76981132 93.7813953,10.2320755 93.7813953,13.5971698 C93.7813953,16.9896226 91.1034884,19.4792453 87.797093,19.4792453 C84.4633721,19.4792453 81.7854651,17.0169811 81.7854651,13.5971698 C81.7854651,10.204717 84.4633721,7.76981132 87.7697674,7.76981132 Z M87.797093,17.5915094 C89.9011628,17.5915094 91.6226744,15.9226415 91.6226744,13.5698113 C91.6226744,11.2443396 89.8738372,9.60283019 87.797093,9.60283019 C85.6930233,9.60283019 83.9715116,11.2443396 83.9715116,13.5698113 C83.9715116,15.9226415 85.6930233,17.5915094 87.797093,17.5915094 Z" id="Shape" fill="#21272E"></path>
                    <g id="Group">
                        <path d="M10.3017442,11.2443396 C10.8209302,11.2443396 11.230814,10.8339623 11.230814,10.3141509 L11.230814,7.66037736 C11.230814,4.51415094 13.7994186,1.94245283 16.9418605,1.94245283 C20.0843023,1.94245283 22.6802326,4.51415094 22.6802326,7.66037736 L22.6802326,10.2867925 C22.6802326,10.8066038 23.0901163,11.2169811 23.6093023,11.2169811 C24.1284884,11.2169811 24.5383721,10.8066038 24.5383721,10.2867925 L24.5383721,7.66037736 C24.5383721,3.4745283 21.15,0.0820754717 16.969186,0.0820754717 C12.7883721,0.0820754717 9.4,3.4745283 9.4,7.66037736 L9.4,10.2867925 C9.37267442,10.8066038 9.80988372,11.2443396 10.3017442,11.2443396 Z" id="Path" fill="url(#linearGradient-3)"></path>
                        <path d="M16.969186,17.9198113 C16.45,17.9198113 16.0401163,18.3301887 16.0401163,18.85 L16.0401163,27.9877358 C16.0401163,28.5075472 16.45,28.9179245 16.969186,28.9179245 C17.4883721,28.9179245 17.8982558,28.5075472 17.8982558,27.9877358 L17.8982558,18.85 C17.8982558,18.3301887 17.4883721,17.9198113 16.969186,17.9198113 Z" id="Path" fill="url(#linearGradient-4)"></path>
                        <path d="M18.3354651,12.8311321 L15.602907,12.8311321 C15.1930233,12.8311321 14.8651163,13.2688679 15.0290698,13.6518868 C15.3569767,14.4179245 16.0947674,14.9377358 16.969186,14.9377358 C17.8436047,14.9377358 18.5813953,14.4179245 18.9093023,13.6518868 C19.0459302,13.2688679 18.7453488,12.8311321 18.3354651,12.8311321 Z" id="Path" fill="url(#linearGradient-5)"></path>
                        <path d="M7.07732558,19.1783019 C9.37267442,19.1783019 11.230814,17.3179245 11.230814,15.0198113 C11.230814,14.5 10.8209302,14.0896226 10.3017442,14.0896226 C9.78255814,14.0896226 9.37267442,14.5 9.37267442,15.0198113 C9.37267442,16.2783019 8.33430233,17.3179245 7.07732558,17.3179245 C5.82034884,17.3179245 4.78197674,16.2783019 4.78197674,15.0198113 L4.78197674,11.7641509 C4.78197674,9.73962264 3.14244186,8.1254717 1.14767442,8.1254717 C0.628488372,8.1254717 0.218604651,8.53584906 0.218604651,9.05566038 C0.218604651,9.5754717 0.628488372,9.98584906 1.14767442,9.98584906 C2.13139535,9.98584906 2.92383721,10.7792453 2.92383721,11.7641509 L2.92383721,15.0198113 C2.92383721,17.3179245 4.78197674,19.1783019 7.07732558,19.1783019 Z" id="Path" fill="url(#linearGradient-6)"></path>
                        <path d="M13.3895349,16.1415094 C12.8703488,16.1415094 12.4604651,16.5518868 12.4604651,17.0716981 L12.4604651,20.9839623 C12.4604651,22.7622642 11.0122093,24.2122642 9.23604651,24.2122642 C7.45988372,24.2122642 6.01162791,22.7622642 6.01162791,20.9839623 C6.01162791,20.4641509 5.60174419,20.0537736 5.08255814,20.0537736 C4.56337209,20.0537736 4.15348837,20.4641509 4.15348837,20.9839623 C4.15348837,23.8018868 6.44883721,26.1 9.26337209,26.1 C12.077907,26.1 14.3732558,23.8018868 14.3732558,20.9839623 L14.3732558,17.0716981 C14.3186047,16.5518868 13.9087209,16.1415094 13.3895349,16.1415094 Z" id="Path" fill="url(#linearGradient-7)"></path>
                        <path d="M32.7633721,8.1254717 C30.7412791,8.1254717 29.1290698,9.76698113 29.1290698,11.7641509 L29.1290698,15.0198113 C29.1290698,16.2783019 28.0906977,17.3179245 26.8337209,17.3179245 C25.5767442,17.3179245 24.5383721,16.2783019 24.5383721,15.0198113 C24.5383721,14.5 24.1284884,14.0896226 23.6093023,14.0896226 C23.0901163,14.0896226 22.6802326,14.5 22.6802326,15.0198113 C22.6802326,17.3179245 24.5383721,19.1783019 26.8337209,19.1783019 C29.1290698,19.1783019 30.9872093,17.3179245 30.9872093,15.0198113 L30.9872093,11.7641509 C30.9872093,10.7792453 31.7796512,9.98584906 32.7633721,9.98584906 C33.2825581,9.98584906 33.6924419,9.5754717 33.6924419,9.05566038 C33.6924419,8.53584906 33.2825581,8.1254717 32.7633721,8.1254717 Z" id="Path" fill="url(#linearGradient-8)"></path>
                        <path d="M28.719186,20.0264151 C28.2,20.0264151 27.7901163,20.4367925 27.7901163,20.9566038 C27.7901163,22.7349057 26.3418605,24.1849057 24.5656977,24.1849057 C22.7895349,24.1849057 21.3412791,22.7349057 21.3412791,20.9566038 L21.3412791,17.0443396 C21.3412791,16.5245283 20.9313953,16.1141509 20.4122093,16.1141509 C19.8930233,16.1141509 19.4831395,16.5245283 19.4831395,17.0443396 L19.4831395,20.9566038 C19.4831395,23.7745283 21.7784884,26.0726415 24.5930233,26.0726415 C27.4075581,26.0726415 29.702907,23.7745283 29.702907,20.9566038 C29.6482558,20.4641509 29.2383721,20.0264151 28.719186,20.0264151 Z" id="Path" fill="url(#linearGradient-9)"></path>
                        <ellipse id="Oval" fill="url(#linearGradient-10)" cx="20.3848837" cy="11.2443396" rx="1" ry="1"></ellipse>
                        <ellipse id="Oval" fill="url(#linearGradient-11)" cx="13.3895349" cy="11.2443396" rx="1" ry="1"></ellipse>
                        <path d="M4.78197674,15.0198113 L4.78197674,11.7641509 C4.78197674,9.73962264 3.14244186,8.1254717 1.14767442,8.1254717 C0.628488372,8.1254717 0.218604651,8.53584906 0.218604651,9.05566038 C0.218604651,9.5754717 0.628488372,9.98584906 1.14767442,9.98584906 C2.13139535,9.98584906 2.92383721,10.7792453 2.92383721,11.7641509 L2.92383721,15.0198113" id="Path" fill="url(#linearGradient-12)"></path>
                    </g>
                </g>
            </g>
        </g>
    </g>
</svg>